<?xml version="1.0" encoding="utf-8" ?>
<svg baseProfile="full" height="600.0" version="1.1" width="800.0" xmlns="http://www.w3.org/2000/svg" xmlns:ev="http://www.w3.org/2001/xml-events" xmlns:xlink="http://www.w3.org/1999/xlink"><defs /><g data-ir-id="__implicit__" id="__implicit__"><rect fill="#F7F9FB" height="600.0" stroke="#C8D4DD" stroke-width="0.5" width="800.0" x="0.0" y="0.0" /></g><g data-ir-id="ras" id="ras"><rect fill="#7BB6E0" height="30" rx="6.0" ry="6.0" stroke="#1F4E79" stroke-width="1.5" width="60" x="730.0" y="285.0" /><text dominant-baseline="central" fill="#1A1A1A" font-family="Helvetica, Arial, sans-serif" font-size="11.0" text-anchor="middle" x="760.0" y="300.0">Ras</text></g><g data-ir-id="raf" id="raf"><polygon fill="#F5A623" points="497.8,284.0 542.2,284.0 555.0,300.0 542.2,316.0 497.8,316.0 485.0,300.0" stroke="#8B5A00" stroke-width="1.5" /><text dominant-baseline="central" fill="#1A1A1A" font-family="Helvetica, Arial, sans-serif" font-size="11.0" text-anchor="middle" x="520.0" y="300.0">Raf</text></g><g data-ir-id="mek" id="mek"><polygon fill="#F5A623" points="257.8,284.0 302.2,284.0 315.0,300.0 302.2,316.0 257.8,316.0 245.0,300.0" stroke="#8B5A00" stroke-width="1.5" /><text dominant-baseline="central" fill="#1A1A1A" font-family="Helvetica, Arial, sans-serif" font-size="11.0" text-anchor="middle" x="280.0" y="300.0">MEK</text></g><g data-ir-id="erk" id="erk"><polygon fill="#F5A623" points="17.8,284.0 62.2,284.0 75.0,300.0 62.2,316.0 17.8,316.0 5.0,300.0" stroke="#8B5A00" stroke-width="1.5" /><text dominant-baseline="central" fill="#1A1A1A" font-family="Helvetica, Arial, sans-serif" font-size="11.0" text-anchor="middle" x="40.0" y="300.0">ERK</text></g><g data-ir-id="rel_ras_activates_raf" id="rel_ras_activates_raf"><line stroke="#222222" stroke-width="2.0" x1="726.0" x2="569.0" y1="300.0" y2="300.0" /><polygon fill="#222222" points="559.0,300.0 569.0,296.0 569.0,304.0" stroke="none" /></g><g data-ir-id="rel_raf_phosphorylates_mek" id="rel_raf_phosphorylates_mek"><line stroke="#222222" stroke-width="2.0" x1="481.0" x2="329.0" y1="300.0" y2="300.0" /><polygon fill="#222222" points="319.0,300.0 329.0,296.0 329.0,304.0" stroke="none" /></g><g data-ir-id="rel_mek_phosphorylates_erk" id="rel_mek_phosphorylates_erk"><line stroke="#222222" stroke-width="2.0" x1="241.0" x2="89.0" y1="300.0" y2="300.0" /><polygon fill="#222222" points="79.0,300.0 89.0,296.0 89.0,304.0" stroke="none" /></g></svg>